<svg id="Layer_1" data-name="Layer 1" xmlns="http://www.w3.org/2000/svg" viewBox="0 0 636.67 144.67"><defs><style>.cls-1{fill:#ee7415;}.cls-2{fill:#fff;}</style></defs><title>OrangeGroup</title><rect class="cls-1" x="25.28" y="27.31" width="579.33" height="86"/><path class="cls-2" d="M111.89,86.28c-3.47-2.19-7.19-7.69-7.19-15.13a20.3,20.3,0,0,1,4.55-12.69C113.56,53,119.09,52,123.49,52a17.19,17.19,0,0,1,11.94,4c3.72,3,6.71,8.2,6.71,15.23a19.13,19.13,0,0,1-3.67,11.16c-3.19,4.12-7.34,7.18-15.08,7.18A21.4,21.4,0,0,1,111.89,86.28Zm22.56-14.62c0-11.16-7-17.27-11.16-17.27-1,0-3.42-.26-6.41,2.75-2.88,2.85-4.35,8.2-4.35,12.38,0,13,7.19,17.68,11.25,17.68C132.84,87.2,134.45,75.84,134.45,71.66Z"/><path class="cls-2" d="M153.78,65.65c0-3.78,0-7-.06-8.41-.05-1.68-.71-2.55-1.42-2.55h-2c-.25,0-.31-.15-.31-.36V53c0-.26.06-.36.31-.36.46,0,2,.16,7.59.16,2.85,0,7.34-.16,9.43-.16a12.91,12.91,0,0,1,9,3.36,7.92,7.92,0,0,1,2.9,5.56c0,6.47-4.84,9.37-9.32,9.78v.36a6.78,6.78,0,0,1,3.36,2.7c.66.81,3.46,5.35,3.87,6s3.06,4.33,4.08,5.5c.61.66,2.54,1.07,3.72,1.07.35,0,.4.2.4.41v1.22c0,.31-.05.46-.4.46s-1.74-.15-5.66-.15c-1.48,0-3.36.1-4.84.15-1.53-1.17-4.69-7.08-5.55-8.81-1.74-3.47-3.82-7.24-6.27-7.24h-1.73v2.6c0,3,.15,8.71.25,9.37.1,1.07.51,2,1.28,2h2.08c.36,0,.41.15.41.41v1.22c0,.36,0,.46-.81.46,0,0-1.33-.15-6.68-.15s-6.57.15-7.13.15c-.41,0-.41-.15-.41-.51V87.3c0-.26,0-.41.26-.41h1.53c1.12,0,2-.36,2-1.63.11-5,.11-9.83.11-14.67Zm7.13,5.5c1,0,1.58,0,2,0,6.72,0,8.3-6.42,8.3-8.82a8.46,8.46,0,0,0-1.94-5.7,8.93,8.93,0,0,0-5.65-2.24,3,3,0,0,0-1.94.45,2.22,2.22,0,0,0-.56,1.38Z"/><path class="cls-2" d="M201.31,74.87c-.4,1.07-2.9,8-2.9,9.68,0,1.12.46,2.34,2,2.34h1.78c.51,0,.56.2.56.41v1.12c0,.41-.05.56-.46.56-.66,0-2.75-.15-6.93-.15-3.72,0-4.84.15-5.55.15-.31,0-.36-.31-.36-.66v-1c0-.31.05-.46.36-.46h1.32a4.28,4.28,0,0,0,3.47-2.24c.71-1.07,4.33-9.94,6-14.42.41-1,4.54-12,5-13.35a2,2,0,0,0,0-1.73,1.42,1.42,0,0,1-.35-.66c0-.16.1-.36.51-.46,1.63-.36,4.94-1.68,5.7-2.55.26-.25.41-.46.67-.46s.4.31.56.87c1,3.21,4.94,14.62,5.91,17.88,1.17,4,4.48,13.45,5.19,14.83a3.76,3.76,0,0,0,3,2.29h1.73c.31,0,.36.2.36.46v1c0,.3,0,.66-.46.66-1,0-2-.15-8.56-.15-4.23,0-6,.15-7,.15-.51,0-.56-.31-.56-.66v-1c0-.26,0-.46.3-.46H214c1.38,0,1.83-.51,1.53-1.83-.46-1.84-2.45-8.36-3.06-10.19Zm10.7-2c-.46-1.53-3.46-12.23-3.82-13.5-.2-.77-.3-1.12-.56-1.12s-.46.2-.61.66c-.25.66-4.64,12.68-5,14Z"/><path class="cls-2" d="M267,74c0-4.53-.05-7-.15-9.58-.05-2-.31-7-.46-7.74a2.72,2.72,0,0,0-2.7-2h-1.63c-.26,0-.31-.15-.31-.46V53c0-.26.05-.36.46-.36s2.19.16,6,.16c3.06,0,4.28-.16,4.84-.16s.51.1.51.41v1.22c0,.26,0,.46-.25.46h-1.43c-.87,0-1.38.87-1.53,2.7C270,60.8,269.15,72.32,269.15,79v8.72c0,.76,0,1.68-.76,1.68a2.7,2.7,0,0,1-2-.82c-.87-.81-3.36-3.51-6.42-7.13-3.67-4.33-7.75-9.22-8.71-10.34s-7.9-9.78-9.07-11.47h-.41V70c0,4.22.46,10.49.51,12.43.1,3,1,4.48,3.16,4.48h1.27c.36,0,.41.15.41.46v1.22c0,.31,0,.41-.41.41s-3.56-.15-6-.15c-1.58,0-5.09.15-5.6.15-.21,0-.26-.1-.26-.46V87.2c0-.16.05-.31.31-.31H237c1.12,0,1.94-1.63,2.19-5,.05-1,.46-9.12.46-16.66V60.6c0-3-1.83-5.86-4.38-5.91l-1.28,0c-.25,0-.3-.2-.3-.36V52.91c0-.21.05-.31.3-.31s.67,0,1.64,0,2.64.11,5.29.11c1.74,0,3.26-.11,3.88-.11a1.75,1.75,0,0,1,1.47.67c.26.3,10.3,12.58,11.82,14.46.72.87,8.16,10.2,8.72,10.86h.2Z"/><path class="cls-2" d="M316.19,83.89c0,.71.2,1.22.2,1.62s-.3.62-.81.82c-4.13,2.09-8.46,3.26-14.93,3.26-5.3,0-11.26-1.68-14.77-5.81-3.11-3.51-4.69-7.84-4.69-14A17.4,17.4,0,0,1,287.1,57c3.72-3.26,8.3-5,14.42-5a21.1,21.1,0,0,1,10.64,2.5c.62.35,1,.25,1.28-.16l.51-.81c.25-.36.35-.51.66-.51.56,0,.71.36.71.92l.77,10.49c.05.61,0,.87-.21.92l-1.42.31c-.31,0-.46-.06-.61-.51a19.18,19.18,0,0,0-4.64-7.75,11.29,11.29,0,0,0-8-3.16,9.24,9.24,0,0,0-7.69,3.82,18.51,18.51,0,0,0-4.08,11.62c0,6,1.68,11.26,4.43,14,2.4,2.4,4.33,3.47,7.8,3.47a11.88,11.88,0,0,0,5.76-1c1.07-.51,1.17-2.14,1.17-4.79V77.67c0-1.83-.51-2.34-1.79-2.34h-2.14c-.3,0-.35-.21-.35-.46V73.59c0-.2.05-.35.35-.35.46,0,3,.15,7.54.15s6.58-.15,7-.15.46.15.46.4v1.28c0,.3-.05.41-.35.41h-1.48c-.92,0-1.58.35-1.58,1.83Z"/><path class="cls-2" d="M339,69.31a34,34,0,0,0,5.2-.3,4.24,4.24,0,0,0,2.34-1.58,6.39,6.39,0,0,0,1.18-3.16c0-.36.15-.46.4-.46l1.38.15c.25.05.46.11.41.41a49.23,49.23,0,0,0-.16,5.3c0,2.29.21,4.74.31,5.81.05.3-.15.36-.41.41l-1.22.25c-.2,0-.31,0-.41-.41a15.15,15.15,0,0,0-1-2.6,4.12,4.12,0,0,0-2.8-1.78,35.61,35.61,0,0,0-5.2-.3v3c0,2.75.26,7.7.26,8.61,0,2.65.56,3.57,1.22,3.88a11.68,11.68,0,0,0,4.28.45c.87,0,3-.05,4.08-.15a7.78,7.78,0,0,0,3.87-1.68,57.75,57.75,0,0,0,5.2-5.45c.2-.21.35-.26.51-.16l.86.51c.21.11.26.26.21.41l-2.3,7.7a1.08,1.08,0,0,1-1.12.76c-.25,0-1.37,0-4.63-.1s-8.72,0-17.53,0c-1.88,0-3.31,0-4.33,0s-1.73.1-2.19.1-.46-.15-.46-.56V87.35c0-.31.15-.46.51-.46H329c2.34,0,2.55-.36,2.55-2.14V67.68c0-4.23-.11-10.49-.16-11-.2-1.63-.71-2-2.09-2h-2c-.21,0-.26-.15-.26-.51V53a.32.32,0,0,1,.36-.36c1.12,0,2.9.16,7.54.16l17.88-.06c.82,0,1.79-.1,2-.1s.36.1.41.26c.2.71,1.88,7.69,2.09,8.2.1.25.1.36-.16.51l-.81.41a.45.45,0,0,1-.61-.21,56,56,0,0,0-6-5.7,8.27,8.27,0,0,0-3.87-1.38l-6.72-.2Z"/><path class="cls-2" d="M415.6,83.89c0,.71.2,1.22.2,1.62s-.31.62-.82.82c-4.12,2.09-8.45,3.26-14.92,3.26-5.3,0-11.26-1.68-14.78-5.81-3.11-3.51-4.69-7.84-4.69-14A17.4,17.4,0,0,1,386.5,57c3.72-3.26,8.31-5,14.42-5a21.12,21.12,0,0,1,10.65,2.5c.61.35,1,.25,1.27-.16l.51-.81c.26-.36.36-.51.67-.51.56,0,.71.36.71.92l.76,10.49c.06.61,0,.87-.2.92l-1.43.31c-.3,0-.46-.06-.61-.51a19,19,0,0,0-4.63-7.75,11.3,11.3,0,0,0-8.06-3.16,9.25,9.25,0,0,0-7.69,3.82,18.56,18.56,0,0,0-4.07,11.62c0,6,1.68,11.26,4.43,14,2.39,2.4,4.33,3.47,7.79,3.47a11.86,11.86,0,0,0,5.76-1c1.07-.51,1.17-2.14,1.17-4.79V77.67c0-1.83-.51-2.34-1.78-2.34H404c-.3,0-.36-.21-.36-.46V73.59c0-.2.06-.35.36-.35.46,0,3,.15,7.54.15s6.57-.15,7-.15.46.15.46.4v1.28c0,.3-.05.41-.36.41h-1.48c-.91,0-1.57.35-1.57,1.83Z"/><path class="cls-2" d="M430.11,65.65c0-3.78,0-7-.05-8.41-.05-1.68-.71-2.55-1.43-2.55h-2c-.25,0-.3-.15-.3-.36V53c0-.26,0-.36.3-.36.46,0,2,.16,7.6.16,2.85,0,7.33-.16,9.42-.16a12.89,12.89,0,0,1,9,3.36,7.92,7.92,0,0,1,2.9,5.56c0,6.47-4.84,9.37-9.32,9.78v.36a6.7,6.7,0,0,1,3.36,2.7c.66.81,3.47,5.35,3.88,6s3.05,4.33,4.07,5.5c.61.66,2.55,1.07,3.72,1.07.36,0,.41.2.41.41v1.22c0,.31,0,.46-.41.46s-1.73-.15-5.66-.15c-1.47,0-3.36.1-4.84.15-1.52-1.17-4.68-7.08-5.55-8.81-1.73-3.47-3.82-7.24-6.27-7.24h-1.73v2.6c0,3,.16,8.71.26,9.37.1,1.07.51,2,1.27,2h2.09c.36,0,.41.15.41.41v1.22c0,.36-.05.46-.82.46,0,0-1.32-.15-6.67-.15s-6.58.15-7.14.15c-.4,0-.4-.15-.4-.51V87.3c0-.26,0-.41.25-.41H428c1.12,0,2-.36,2-1.63.1-5,.1-9.83.1-14.67Zm7.13,5.5c1,0,1.58,0,2,0,6.73,0,8.31-6.42,8.31-8.82a8.51,8.51,0,0,0-1.94-5.7A9,9,0,0,0,440,54.44a3,3,0,0,0-1.93.45,2.16,2.16,0,0,0-.56,1.38Z"/><path class="cls-2" d="M474.4,85.78c-3.62-2.19-7.49-7.69-7.49-15.13A19.77,19.77,0,0,1,471.65,58c4.48-5.45,10.24-6.47,14.82-6.47a18.4,18.4,0,0,1,12.44,4,18.91,18.91,0,0,1,7,15.23,18.59,18.59,0,0,1-3.82,11.16c-3.31,4.12-7.64,7.18-15.69,7.18A22.93,22.93,0,0,1,474.4,85.78Zm23.49-14.62c0-11.16-7.34-17.27-11.62-17.27-1,0-3.57-.26-6.67,2.75-3,2.85-4.54,8.2-4.54,12.38,0,13,7.49,17.68,11.72,17.68C496.21,86.7,497.89,75.34,497.89,71.16Z"/><path class="cls-2" d="M517.64,57.29c0-1.78-.35-2.6-1.42-2.6h-2.4c-.3,0-.35-.1-.35-.46V53c0-.31,0-.41.46-.41s3,.16,8.35.16c4.48,0,6.93-.16,7.49-.16s.46.1.46.41v1.32c0,.26-.05.36-.41.36h-1.73c-1.73,0-2.6,1-2.7,2,0,.56-.1,4-.1,6.62v3.36c0,2.7.2,9.18.25,10.81.05,2.34.51,4.63,1.63,6.06a8.08,8.08,0,0,0,6.37,2.85,10.25,10.25,0,0,0,6-2.24c2-1.83,3.21-4.64,3.21-8.3V68a98.25,98.25,0,0,0-.71-11.06c-.2-1.32-1-2.24-1.89-2.24h-1.63c-.3,0-.35-.15-.35-.41V53c0-.26.05-.36.35-.36.51,0,2.86.16,6.32.16,2.75,0,4.38-.16,4.84-.16s.51.21.51.46v1.12c0,.31-.05.51-.31.51h-1.57a2,2,0,0,0-2.19,1.94c-.11.71-.11,7.74-.11,8.46s-.1,9.62-.25,11.61c-.31,4.18-1.68,7.39-4.33,9.73a14.05,14.05,0,0,1-9,3.16,22,22,0,0,1-7.79-1.27,11.73,11.73,0,0,1-5.92-6.73c-.86-2.19-1.07-5.6-1.07-12.28Z"/><path class="cls-2" d="M570.34,75.33c0,2.39,0,9.32.11,9.93.1,1.12.61,1.63,1.42,1.63h2.6c.36,0,.41.15.41.36v1.32c0,.26,0,.41-.46.41-.71,0-2.29-.15-8.25-.15-4.49,0-6.47.15-7,.15-.35,0-.4-.15-.4-.36V87.25c0-.26,0-.36.3-.36h1.33c1.73,0,2.09-.25,2.24-1.53,0-.51.2-8.45.2-14.36V65.14c0-3.37,0-8.72-.1-9.33-.1-1-.61-1.12-1.63-1.12h-2.39c-.26,0-.31-.1-.31-.41V53c0-.26,0-.36.31-.36.56,0,2.39.16,7.74.16.92,0,3.92-.16,5.61-.16,6.26,0,9.27.51,12.22,2.8a10,10,0,0,1,3.67,7.9c0,6.12-4.89,10.29-13.45,10.29-1.58,0-2.75,0-4.13-.15Zm0-3.88a14.29,14.29,0,0,0,3.11.31c1.58,0,4.13-1.63,5.25-3.42a9.79,9.79,0,0,0,1.22-5.4c0-7-5.09-8.5-7.18-8.5a10,10,0,0,0-2.4.25Z"/><path class="cls-1" d="M616.45,123.81h-603v-107h603Zm-598-5h593v-97h-593Z"/><path class="cls-2" d="M76.8,63.36a10.85,10.85,0,0,0-1.4.09l0-.55A12.52,12.52,0,0,0,81,59.7c2.23-2.52,2.67-6.8,2.67-6.8s-4.15.47-6.5,3.46a10,10,0,0,0-2.06,4.8c-.07-1.83-.51-4.31-2.26-5.81-2.44-2.08-7.09-1.14-7.09-1.14a44.63,44.63,0,0,1,5,4A48.61,48.61,0,0,1,75,63.44v.07a12.05,12.05,0,1,0,1.78-.15Z"/><path class="cls-2" d="M54.14,63.36a12.66,12.66,0,0,0-1.39.08l0-.6a12.46,12.46,0,0,0,5.63-3.18C60.56,57.16,61,52.9,61,52.9s-4.13.47-6.47,3.44a10,10,0,0,0-2.05,4.78c-.07-1.82-.52-4.28-2.26-5.77-2.44-2.08-7.08-1.14-7.08-1.14a44.83,44.83,0,0,1,5,4,50.86,50.86,0,0,1,4.23,5.24v0a12.09,12.09,0,1,0,1.77-.14Z"/></svg>